<svg xmlns="http://www.w3.org/2000/svg" width="353" height="214" viewBox="0 0 353 214" preserveAspectRatio="none">
  <g id="组_25241" data-name="组 25241" transform="translate(-319 -11895)">
    <path id="减去_9" data-name="减去 9" d="M346,214H7a7.008,7.008,0,0,1-7-7V7A7.008,7.008,0,0,1,7,0H346a7.008,7.008,0,0,1,7,7V207A7.008,7.008,0,0,1,346,214ZM17.127,8.842h0L9.594,20.7v172.26l7.533,12.2H335.874c.32,0,.945-.579,1.809-1.675a46.232,46.232,0,0,0,2.631-3.808c1.691-2.69,3.4-5.86,3.4-6.715V20.7L335.874,8.842H17.127Z" transform="translate(319 11895)" fill="#112761" opacity="0.835"/>
    <g id="组_25240" data-name="组 25240" transform="translate(328.438 11903.842)" opacity="0.574">
      <g id="路径_19481" data-name="路径 19481" fill="none">
        <path d="M7.533,0H326.28l7.843,11.859v172.26c0,1.643-6.461,12.2-7.843,12.2H7.533L0,184.119V11.859Z" stroke="none"/>
        <path d="M 8.082305908203125 0.999969482421875 L 1 12.14947509765625 L 1 183.8348541259766 L 8.090606689453125 195.3166046142578 L 326.1182250976562 195.3166046142578 C 326.5903930664062 194.9808959960938 327.9830322265625 193.3442230224609 330.048095703125 190.0226898193359 C 332.0614013671875 186.7843017578125 333.0702819824219 184.5844879150391 333.1236877441406 184.1051025390625 L 333.1236877441406 12.15957641601562 L 325.7428283691406 0.999969482421875 L 8.082305908203125 0.999969482421875 M 7.5328369140625 -3.0517578125e-05 L 326.2803955078125 -3.0517578125e-05 L 334.1236877441406 11.8587646484375 L 334.1236877441406 184.1187286376953 C 334.1236877441406 185.7615203857422 327.6626281738281 196.3166046142578 326.2803955078125 196.3166046142578 L 7.5328369140625 196.3166046142578 L 0 184.1187286376953 L 0 11.8587646484375 L 7.5328369140625 -3.0517578125e-05 Z" stroke="none" fill="#b7becc"/>
      </g>
      <path id="路径_19482" data-name="路径 19482" d="M0,0H71.388L65.6,7.436H5.751Z" transform="translate(131.968)" fill="#b6becd"/>
      <path id="路径_19485" data-name="路径 19485" d="M0,7.436H71.388L65.6,0H5.751Z" transform="translate(131.968 188.88)" fill="#b6becd"/>
      <path id="路径_19483" data-name="路径 19483" d="M0,0H26.519L24.371,5.136H2.137Z" transform="translate(334.124 84.773) rotate(90)" fill="#b6becd"/>
      <path id="路径_19484" data-name="路径 19484" d="M0,5.136H26.519L24.371,0H2.137Z" transform="translate(5.136 84.773) rotate(90)" fill="#b6becd"/>
    </g>
  </g>
</svg>
